<?xml version="1.0" encoding="UTF-8" standalone="no"?>
<svg
        xmlns="http://www.w3.org/2000/svg"
        xmlns:xlink="http://www.w3.org/1999/xlink"
        id="svg2"
        style="clip-rule:evenodd;fill-rule:evenodd;image-rendering:optimizeQuality;shape-rendering:geometricPrecision;text-rendering:geometricPrecision"
        xml:space="preserve"
        version="1.1"
        viewBox="0 0 599.99999 599.99999"
        width="600"
        height="600">
 <defs
   id="defs4"><linearGradient
   id="linearGradient877"><stop
     style="stop-color:#23e843;stop-opacity:1"
     offset="0"
     id="stop873" /><stop
     style="stop-color:#12a2b3;stop-opacity:1"
     offset="1"
     id="stop875" /></linearGradient>
  <style
   id="style6"
   type="text/css">
    .fil0 {fill:black}
  </style>
 <linearGradient
         xlink:href="#linearGradient877"
   id="linearGradient879"
   x1="4.25"
   y1="1.3382"
   x2="4.25"
   y2="9.6618004"
   gradientUnits="userSpaceOnUse" /></defs>
 <g
   id="Layer_x0020_1"
   transform="matrix(72.084194,0,0,72.084194,-6.3578245,-96.463067)"
   style="stroke:none;fill:#366350;fill-opacity:1">
  <path
   id="path10"
   style="fill:#366350;stroke:none;fill-opacity:1"
   d="M 4.25,1.3382 0.4955,2.4662 C 0.58759,5.2588 1.2884,8.6655 4.25,9.6618 7.2442,8.694 7.8774,5.2291 8.0045,2.4662 Z" />
 </g>
    <g
   id="g30"
   transform="matrix(62.022,0,0,62.022,36.406497,-41.121004)"
   style="fill:#407667;fill-opacity:1;stroke:none">
  <path
   id="path28"
   style="fill:#407667;fill-opacity:1;stroke:none"
   d="M 4.25,1.3382 0.4955,2.4662 C 0.58759,5.2588 1.2884,8.6655 4.25,9.6618 7.2442,8.694 7.8774,5.2291 8.0045,2.4662 Z" />
 </g><g
   id="g1734"
   transform="matrix(0.81149458,0,0,0.81149458,92.257386,92.257386)"
   style="fill:#ffffff;fill-opacity:0.65570879;stroke:none;stroke-width:0.999438;stroke-miterlimit:4;stroke-dasharray:none;stroke-opacity:1"><g
     id="g1677"
     style="fill:#ffffff;fill-opacity:0.65570879;stroke:none;stroke-width:0.999438;stroke-miterlimit:4;stroke-dasharray:none;stroke-opacity:1">
	<g
   id="g1675"
   style="fill:#ffffff;fill-opacity:0.65570879;stroke:none;stroke-width:0.999438;stroke-miterlimit:4;stroke-dasharray:none;stroke-opacity:1">
		<path
   d="M 256,0 C 157.885,0 78.063,79.822 78.063,177.936 c 0,46.98 18.144,91.296 51.088,124.784 l 2.627,2.664 c 12.84,13.511 22.519,29.458 28.548,46.871 l -0.592,0.372 c -11.394,7.163 -18.198,19.455 -18.198,32.875 0,13.279 6.624,25.167 17.105,32.202 -0.923,3.334 -1.422,6.809 -1.422,10.357 0,21.417 17.424,38.841 38.841,38.841 h 3.793 C 205.545,492.665 228.551,512 256,512 c 27.449,0 50.455,-19.336 56.147,-45.099 h 3.793 c 21.417,0 38.841,-17.424 38.841,-38.841 0,-3.548 -0.499,-7.023 -1.422,-10.357 10.482,-7.034 17.105,-18.923 17.105,-32.202 0,-13.42 -6.802,-25.711 -18.198,-32.875 l -0.592,-0.372 c 6.005,-17.348 15.634,-33.24 28.405,-46.719 l 2.77,-2.816 C 415.794,269.232 433.937,224.916 433.937,177.935 433.937,79.822 354.115,0 256,0 Z m 0,481.583 c -10.465,0 -19.562,-5.964 -24.074,-14.671 h 48.147 c -4.51,8.707 -13.607,14.671 -24.073,14.671 z m 59.94,-45.1 h -2.429 v -0.105 l -15.313,0.105 h -84.371 l -15.337,-0.205 v 0.205 h -2.429 c -4.645,0 -8.424,-3.779 -8.424,-8.424 0,-1.561 0.433,-3.064 1.22,-4.363 h 134.287 c 0.787,1.298 1.22,2.801 1.22,4.363 0,4.646 -3.779,8.424 -8.424,8.424 z m 18.882,-43.202 h -0.966 -155.711 -0.966 c -3.133,-1.27 -5.226,-4.306 -5.226,-7.779 0,-1.745 0.538,-3.405 1.51,-4.792 h 165.075 c 0.971,1.386 1.51,3.047 1.51,4.792 0,3.472 -2.093,6.508 -5.226,7.779 z m -95.049,-42.988 v -90.148 h 32.453 v 90.148 z m 122.238,-69.771 -0.749,0.747 c -19.394,19.326 -33.376,42.992 -40.879,69.024 h -17.738 v -90.148 h 9.559 c 22.043,0 39.976,-17.934 39.976,-39.977 0,-22.042 -17.934,-39.976 -39.976,-39.976 -22.042,0 -39.976,17.934 -39.976,39.976 v 9.56 h -32.453 v -9.56 c 0,-22.042 -17.934,-39.976 -39.976,-39.976 -22.042,0 -39.976,17.934 -39.976,39.976 0,22.043 17.934,39.977 39.976,39.977 h 9.559 v 90.148 H 191.62 c -7.503,-26.033 -21.486,-49.699 -40.88,-69.024 l -0.71,-0.706 C 123.228,252.9 108.481,216.499 108.481,177.935 108.481,96.593 174.658,30.417 256,30.417 c 81.342,0 147.52,66.177 147.52,147.519 0,38.545 -14.733,74.928 -41.509,102.586 z m -59.367,-50.794 v -9.56 c 0,-5.27 4.288,-9.559 9.559,-9.559 5.271,0 9.559,4.288 9.559,9.559 0,5.271 -4.288,9.56 -9.559,9.56 z m -93.288,-9.56 v 9.56 h -9.559 c -5.271,0 -9.559,-4.288 -9.559,-9.56 0,-5.27 4.288,-9.559 9.559,-9.559 5.271,0 9.559,4.288 9.559,9.559 z"
   id="path1673"
   style="fill:#ffffff;fill-opacity:0.65570879;stroke:none;stroke-width:13.9977;stroke-miterlimit:4;stroke-dasharray:none;stroke-opacity:1" />
	</g>
</g><g
     id="g1679"
     style="fill:#ffffff;fill-opacity:0.65570879;stroke:none;stroke-width:0.999438;stroke-miterlimit:4;stroke-dasharray:none;stroke-opacity:1">
</g><g
     id="g1681"
     style="fill:#ffffff;fill-opacity:0.65570879;stroke:none;stroke-width:0.999438;stroke-miterlimit:4;stroke-dasharray:none;stroke-opacity:1">
</g><g
     id="g1683"
     style="fill:#ffffff;fill-opacity:0.65570879;stroke:none;stroke-width:0.999438;stroke-miterlimit:4;stroke-dasharray:none;stroke-opacity:1">
</g><g
     id="g1685"
     style="fill:#ffffff;fill-opacity:0.65570879;stroke:none;stroke-width:0.999438;stroke-miterlimit:4;stroke-dasharray:none;stroke-opacity:1">
</g><g
     id="g1687"
     style="fill:#ffffff;fill-opacity:0.65570879;stroke:none;stroke-width:0.999438;stroke-miterlimit:4;stroke-dasharray:none;stroke-opacity:1">
</g><g
     id="g1689"
     style="fill:#ffffff;fill-opacity:0.65570879;stroke:none;stroke-width:0.999438;stroke-miterlimit:4;stroke-dasharray:none;stroke-opacity:1">
</g><g
     id="g1691"
     style="fill:#ffffff;fill-opacity:0.65570879;stroke:none;stroke-width:0.999438;stroke-miterlimit:4;stroke-dasharray:none;stroke-opacity:1">
</g><g
     id="g1693"
     style="fill:#ffffff;fill-opacity:0.65570879;stroke:none;stroke-width:0.999438;stroke-miterlimit:4;stroke-dasharray:none;stroke-opacity:1">
</g><g
     id="g1695"
     style="fill:#ffffff;fill-opacity:0.65570879;stroke:none;stroke-width:0.999438;stroke-miterlimit:4;stroke-dasharray:none;stroke-opacity:1">
</g><g
     id="g1697"
     style="fill:#ffffff;fill-opacity:0.65570879;stroke:none;stroke-width:0.999438;stroke-miterlimit:4;stroke-dasharray:none;stroke-opacity:1">
</g><g
     id="g1699"
     style="fill:#ffffff;fill-opacity:0.65570879;stroke:none;stroke-width:0.999438;stroke-miterlimit:4;stroke-dasharray:none;stroke-opacity:1">
</g><g
     id="g1701"
     style="fill:#ffffff;fill-opacity:0.65570879;stroke:none;stroke-width:0.999438;stroke-miterlimit:4;stroke-dasharray:none;stroke-opacity:1">
</g><g
     id="g1703"
     style="fill:#ffffff;fill-opacity:0.65570879;stroke:none;stroke-width:0.999438;stroke-miterlimit:4;stroke-dasharray:none;stroke-opacity:1">
</g><g
     id="g1705"
     style="fill:#ffffff;fill-opacity:0.65570879;stroke:none;stroke-width:0.999438;stroke-miterlimit:4;stroke-dasharray:none;stroke-opacity:1">
</g><g
     id="g1707"
     style="fill:#ffffff;fill-opacity:0.65570879;stroke:none;stroke-width:0.999438;stroke-miterlimit:4;stroke-dasharray:none;stroke-opacity:1">
</g></g></svg>
